<svg xmlns="http://www.w3.org/2000/svg" width="2860" height="1820" viewBox="0 0 2860 1820"><defs>
<filter id="sh" x="-20%" y="-20%" width="140%" height="140%">
  <feDropShadow dx="0" dy="3" stdDeviation="4" flood-color="#0f172a" flood-opacity="0.16"/>
</filter>
<marker id="arrK" markerWidth="12" markerHeight="12" refX="9" refY="5" orient="auto">
  <path d="M0,0 L10,5 L0,10 z" fill="#111827"/></marker>
</defs><rect width="2860" height="1820" fill="#eef2f7"/><rect x="0" y="0" width="2860" height="118" fill="#0f172a"/><rect x="46" y="34" width="52" height="52" rx="14" fill="#1e293b" stroke="#38bdf8" stroke-width="2"/><path d="M 60 60 l 8 8 l 16 -18" stroke="#38bdf8" stroke-width="4" fill="none" stroke-linecap="round"/><text x="118" y="58" font-family="DejaVu Sans, Arial, sans-serif" font-size="34" fill="#ffffff" font-weight="bold" font-style="normal" text-anchor="start">VITA — System Architecture &amp; Network Traffic</text><text x="118" y="92" font-family="DejaVu Sans, Arial, sans-serif" font-size="18" fill="#94a3b8" font-weight="normal" font-style="normal" text-anchor="start">Multi-agent document verification desk · Modular monolith with an event-driven agent core · reverse-engineered from source</text><text x="2814" y="58" font-family="DejaVu Sans, Arial, sans-serif" font-size="19" fill="#64748b" font-weight="bold" font-style="normal" text-anchor="end">cloud-deployment view</text><text x="2814" y="88" font-family="DejaVu Sans, Arial, sans-serif" font-size="15" fill="#64748b" font-weight="normal" font-style="normal" text-anchor="end">[INFERRED edge] = platform-provided, not in repo</text><rect x="540" y="205" width="1840" height="1445" rx="22" fill="#f0f0fe" fill-opacity="0.5" stroke="#4f46e5" stroke-width="2.5" stroke-dasharray="10 7"/><rect x="562" y="183" width="546.6999999999999" height="44" rx="12" fill="#4f46e5"/><text x="578" y="212" font-family="DejaVu Sans, Arial, sans-serif" font-size="22" fill="#ffffff" font-weight="bold" font-style="normal" text-anchor="start">Render PaaS  (single region, one service)</text><rect x="828" y="258" width="1010" height="1355" rx="22" fill="#e6fbf7" fill-opacity="0.5" stroke="#0d9488" stroke-width="2.5" stroke-dasharray="10 7"/><rect x="850" y="236" width="699.0999999999999" height="44" rx="12" fill="#0d9488"/><text x="866" y="265" font-family="DejaVu Sans, Arial, sans-serif" font-size="22" fill="#ffffff" font-weight="bold" font-style="normal" text-anchor="start">FastAPI Application Container (Docker · uvicorn ASGI)</text><rect x="858" y="690" width="946" height="330" rx="22" fill="#fdeaf4" fill-opacity="0.5" stroke="#db2777" stroke-width="2.5" stroke-dasharray="10 7"/><rect x="880" y="668" width="318.09999999999997" height="44" rx="12" fill="#db2777"/><text x="896" y="697" font-family="DejaVu Sans, Arial, sans-serif" font-size="22" fill="#ffffff" font-weight="bold" font-style="normal" text-anchor="start">Event-driven Agent Core</text><rect x="858" y="1070" width="946" height="250" rx="22" fill="#e6f3fb" fill-opacity="0.5" stroke="#0369a1" stroke-width="2.5" stroke-dasharray="10 7"/><rect x="880" y="1048" width="216.5" height="44" rx="12" fill="#0369a1"/><text x="896" y="1077" font-family="DejaVu Sans, Arial, sans-serif" font-size="22" fill="#ffffff" font-weight="bold" font-style="normal" text-anchor="start">Domain Services</text><rect x="1878" y="300" width="476" height="520" rx="22" fill="#fdf3e3" fill-opacity="0.5" stroke="#d97706" stroke-width="2.5" stroke-dasharray="10 7"/><rect x="1900" y="278" width="203.79999999999998" height="44" rx="12" fill="#d97706"/><text x="1916" y="307" font-family="DejaVu Sans, Arial, sans-serif" font-size="22" fill="#ffffff" font-weight="bold" font-style="normal" text-anchor="start">Data &amp; Storage</text><rect x="2432" y="300" width="388" height="520" rx="22" fill="#f3ecfe" fill-opacity="0.5" stroke="#7c3aed" stroke-width="2.5" stroke-dasharray="10 7"/><rect x="2454" y="278" width="292.7" height="44" rx="12" fill="#7c3aed"/><text x="2470" y="307" font-family="DejaVu Sans, Arial, sans-serif" font-size="22" fill="#ffffff" font-weight="bold" font-style="normal" text-anchor="start">External LLM Provider</text><rect x="60" y="372" width="200" height="132" rx="14" fill="#ffffff" stroke="#2563eb" stroke-width="2.5" filter="url(#sh)"/><rect x="60" y="372" width="8" height="132" rx="4" fill="#2563eb"/><text x="120" y="432.0" font-family="DejaVu Sans, Arial, sans-serif" font-size="22" fill="#0f172a" font-weight="bold" font-style="normal" text-anchor="start">Uploader</text><text x="120" y="456.0" font-family="DejaVu Sans, Arial, sans-serif" font-size="14" fill="#475569" font-weight="normal" font-style="normal" text-anchor="start">create · upload · run · retry</text><g stroke="#2563eb" stroke-width="2.4" fill="none"><circle cx="90" cy="429.0" r="9"/><path d="M 76 454.0 q 14 -20 28 0"/></g><rect x="60" y="560" width="200" height="132" rx="14" fill="#ffffff" stroke="#2563eb" stroke-width="2.5" filter="url(#sh)"/><rect x="60" y="560" width="8" height="132" rx="4" fill="#2563eb"/><text x="120" y="620.0" font-family="DejaVu Sans, Arial, sans-serif" font-size="22" fill="#0f172a" font-weight="bold" font-style="normal" text-anchor="start">Reviewer</text><text x="120" y="644.0" font-family="DejaVu Sans, Arial, sans-serif" font-size="14" fill="#475569" font-weight="normal" font-style="normal" text-anchor="start">review · approve / reject</text><g stroke="#2563eb" stroke-width="2.4" fill="none"><circle cx="90" cy="617.0" r="9"/><path d="M 76 642.0 q 14 -20 28 0"/></g><rect x="60" y="748" width="200" height="132" rx="14" fill="#ffffff" stroke="#2563eb" stroke-width="2.5" filter="url(#sh)"/><rect x="60" y="748" width="8" height="132" rx="4" fill="#2563eb"/><text x="120" y="808.0" font-family="DejaVu Sans, Arial, sans-serif" font-size="22" fill="#0f172a" font-weight="bold" font-style="normal" text-anchor="start">Admin</text><text x="120" y="832.0" font-family="DejaVu Sans, Arial, sans-serif" font-size="14" fill="#475569" font-weight="normal" font-style="normal" text-anchor="start">superuser — all actions</text><g stroke="#2563eb" stroke-width="2.4" fill="none"><circle cx="90" cy="805.0" r="9"/><path d="M 76 830.0 q 14 -20 28 0"/></g><rect x="300" y="470" width="200" height="320" rx="14" fill="#e8f0fe" stroke="#2563eb" stroke-width="2.5" filter="url(#sh)"/><rect x="300" y="470" width="8" height="320" rx="4" fill="#2563eb"/><text x="360" y="624.0" font-family="DejaVu Sans, Arial, sans-serif" font-size="22" fill="#0f172a" font-weight="bold" font-style="normal" text-anchor="start">React 18 SPA</text><text x="360" y="648.0" font-family="DejaVu Sans, Arial, sans-serif" font-size="15" fill="#475569" font-weight="normal" font-style="normal" text-anchor="start">Vite build · zustand</text><text x="360" y="668.0" font-family="DejaVu Sans, Arial, sans-serif" font-size="15" fill="#475569" font-weight="normal" font-style="normal" text-anchor="start">router · axios · WebSocket</text><text x="360" y="688.0" font-family="DejaVu Sans, Arial, sans-serif" font-size="15" fill="#475569" font-weight="normal" font-style="normal" text-anchor="start">role-filtered nav</text><g stroke="#2563eb" stroke-width="2.4" fill="none"><rect x="315" y="617.0" width="30" height="24" rx="3"/><line x1="315" y1="625.0" x2="345" y2="625.0"/><circle cx="320" cy="621.0" r="1.6" fill="#2563eb"/></g><rect x="578" y="500" width="210" height="300" rx="14" fill="#ffffff" stroke="#4f46e5" stroke-width="2.5" filter="url(#sh)"/><rect x="578" y="500" width="8" height="300" rx="4" fill="#4f46e5"/><text x="638" y="644.0" font-family="DejaVu Sans, Arial, sans-serif" font-size="21" fill="#0f172a" font-weight="bold" font-style="normal" text-anchor="start">TLS + HTTP/WS</text><text x="638" y="668.0" font-family="DejaVu Sans, Arial, sans-serif" font-size="14" fill="#475569" font-weight="normal" font-style="normal" text-anchor="start">Router / ingress</text><text x="638" y="688.0" font-family="DejaVu Sans, Arial, sans-serif" font-size="14" fill="#475569" font-weight="normal" font-style="normal" text-anchor="start">[INFERRED: managed]</text><text x="638" y="708.0" font-family="DejaVu Sans, Arial, sans-serif" font-size="14" fill="#475569" font-weight="normal" font-style="normal" text-anchor="start">health: /health</text><g stroke="#4f46e5" stroke-width="2.4" fill="none"><circle cx="608" cy="638.0" r="6"/><circle cx="595" cy="662.0" r="6"/><circle cx="621" cy="662.0" r="6"/><path d="M 608 644.0 L 595 656.0 M 608 644.0 L 621 656.0"/></g><rect x="858" y="322" width="300" height="150" rx="14" fill="#ffffff" stroke="#0d9488" stroke-width="2.5" filter="url(#sh)"/><rect x="858" y="322" width="8" height="150" rx="4" fill="#0d9488"/><text x="884" y="391.0" font-family="DejaVu Sans, Arial, sans-serif" font-size="20" fill="#0f172a" font-weight="bold" font-style="normal" text-anchor="start">REST API  /api</text><text x="884" y="415.0" font-family="DejaVu Sans, Arial, sans-serif" font-size="14" fill="#475569" font-weight="normal" font-style="normal" text-anchor="start">auth · cases · documents</text><text x="884" y="435.0" font-family="DejaVu Sans, Arial, sans-serif" font-size="14" fill="#475569" font-weight="normal" font-style="normal" text-anchor="start">reviews · activity</text><text x="884" y="455.0" font-family="DejaVu Sans, Arial, sans-serif" font-size="14" fill="#475569" font-weight="normal" font-style="normal" text-anchor="start">JWT-guarded · RBAC</text><rect x="1182" y="322" width="262" height="150" rx="14" fill="#ffffff" stroke="#0d9488" stroke-width="2.5" filter="url(#sh)"/><rect x="1182" y="322" width="8" height="150" rx="4" fill="#0d9488"/><text x="1208" y="391.0" font-family="DejaVu Sans, Arial, sans-serif" font-size="20" fill="#0f172a" font-weight="bold" font-style="normal" text-anchor="start">WebSocket</text><text x="1208" y="415.0" font-family="DejaVu Sans, Arial, sans-serif" font-size="14" fill="#475569" font-weight="normal" font-style="normal" text-anchor="start">/api/ws/cases/{id}</text><text x="1208" y="435.0" font-family="DejaVu Sans, Arial, sans-serif" font-size="14" fill="#475569" font-weight="normal" font-style="normal" text-anchor="start">WsHub broadcast</text><text x="1208" y="455.0" font-family="DejaVu Sans, Arial, sans-serif" font-size="14" fill="#475569" font-weight="normal" font-style="normal" text-anchor="start">live agent feed</text><rect x="1468" y="322" width="336" height="150" rx="14" fill="#ffffff" stroke="#0d9488" stroke-width="2.5" filter="url(#sh)"/><rect x="1468" y="322" width="8" height="150" rx="4" fill="#0d9488"/><text x="1494" y="391.0" font-family="DejaVu Sans, Arial, sans-serif" font-size="20" fill="#0f172a" font-weight="bold" font-style="normal" text-anchor="start">Static SPA Host</text><text x="1494" y="415.0" font-family="DejaVu Sans, Arial, sans-serif" font-size="14" fill="#475569" font-weight="normal" font-style="normal" text-anchor="start">StaticFiles → ./static</text><text x="1494" y="435.0" font-family="DejaVu Sans, Arial, sans-serif" font-size="14" fill="#475569" font-weight="normal" font-style="normal" text-anchor="start">same-origin (no CORS)</text><text x="1494" y="455.0" font-family="DejaVu Sans, Arial, sans-serif" font-size="14" fill="#475569" font-weight="normal" font-style="normal" text-anchor="start">SPA fallback</text><rect x="1010" y="542" width="640" height="100" rx="14" fill="#d1faf3" stroke="#0d9488" stroke-width="2.5" filter="url(#sh)"/><rect x="1010" y="542" width="8" height="100" rx="4" fill="#0d9488"/><text x="1070" y="586.0" font-family="DejaVu Sans, Arial, sans-serif" font-size="21" fill="#0f172a" font-weight="bold" font-style="normal" text-anchor="start">BackgroundTask · Orchestrator  (run_pipeline)</text><text x="1070" y="610.0" font-family="DejaVu Sans, Arial, sans-serif" font-size="15" fill="#475569" font-weight="normal" font-style="normal" text-anchor="start">enqueued by POST /run — request returns immediately (async)</text><g stroke="#0d9488" stroke-width="2.4" fill="none"><circle cx="1040" cy="592.0" r="8"/><line x1="1040" y1="592.0" x2="1055" y2="592.0" transform="rotate(0 1040 592.0)"/><line x1="1040" y1="592.0" x2="1055" y2="592.0" transform="rotate(45 1040 592.0)"/><line x1="1040" y1="592.0" x2="1055" y2="592.0" transform="rotate(90 1040 592.0)"/><line x1="1040" y1="592.0" x2="1055" y2="592.0" transform="rotate(135 1040 592.0)"/><line x1="1040" y1="592.0" x2="1055" y2="592.0" transform="rotate(180 1040 592.0)"/><line x1="1040" y1="592.0" x2="1055" y2="592.0" transform="rotate(225 1040 592.0)"/><line x1="1040" y1="592.0" x2="1055" y2="592.0" transform="rotate(270 1040 592.0)"/><line x1="1040" y1="592.0" x2="1055" y2="592.0" transform="rotate(315 1040 592.0)"/></g><rect x="892" y="762" width="246" height="200" rx="14" fill="#ffffff" stroke="#db2777" stroke-width="2.5" filter="url(#sh)"/><rect x="892" y="762" width="8" height="200" rx="4" fill="#db2777"/><text x="952" y="856.0" font-family="DejaVu Sans, Arial, sans-serif" font-size="21" fill="#0f172a" font-weight="bold" font-style="normal" text-anchor="start">Doc Agent</text><text x="952" y="880.0" font-family="DejaVu Sans, Arial, sans-serif" font-size="14" fill="#475569" font-weight="normal" font-style="normal" text-anchor="start">classify · extract</text><text x="952" y="900.0" font-family="DejaVu Sans, Arial, sans-serif" font-size="14" fill="#475569" font-weight="normal" font-style="normal" text-anchor="start">fields + evidence</text><text x="952" y="920.0" font-family="DejaVu Sans, Arial, sans-serif" font-size="14" fill="#475569" font-weight="normal" font-style="normal" text-anchor="start">defend / concede</text><g stroke="#db2777" stroke-width="2.4" fill="none"><rect x="909" y="849.0" width="26" height="26" rx="4"/><rect x="916" y="856.0" width="12" height="12" rx="2"/><line x1="918" y1="849.0" x2="918" y2="843.0"/><line x1="918" y1="875.0" x2="918" y2="881.0"/><line x1="927" y1="849.0" x2="927" y2="843.0"/><line x1="927" y1="875.0" x2="927" y2="881.0"/></g><rect x="1160" y="780" width="236" height="164" rx="14" fill="#fbdcec" stroke="#db2777" stroke-width="2.5" filter="url(#sh)"/><rect x="1160" y="780" width="8" height="164" rx="4" fill="#db2777"/><text x="1186" y="856.0" font-family="DejaVu Sans, Arial, sans-serif" font-size="20" fill="#0f172a" font-weight="bold" font-style="normal" text-anchor="start">AgentBus</text><text x="1186" y="880.0" font-family="DejaVu Sans, Arial, sans-serif" font-size="14" fill="#475569" font-weight="normal" font-style="normal" text-anchor="start">inbox queues</text><text x="1186" y="900.0" font-family="DejaVu Sans, Arial, sans-serif" font-size="14" fill="#475569" font-weight="normal" font-style="normal" text-anchor="start">(asyncio.Queue)</text><text x="1186" y="920.0" font-family="DejaVu Sans, Arial, sans-serif" font-size="14" fill="#475569" font-weight="normal" font-style="normal" text-anchor="start">persist + broadcast</text><rect x="1418" y="762" width="366" height="200" rx="14" fill="#ffffff" stroke="#db2777" stroke-width="2.5" filter="url(#sh)"/><rect x="1418" y="762" width="8" height="200" rx="4" fill="#db2777"/><text x="1478" y="856.0" font-family="DejaVu Sans, Arial, sans-serif" font-size="21" fill="#0f172a" font-weight="bold" font-style="normal" text-anchor="start">Audit Agent</text><text x="1478" y="880.0" font-family="DejaVu Sans, Arial, sans-serif" font-size="14" fill="#475569" font-weight="normal" font-style="normal" text-anchor="start">blind-read · template checks</text><text x="1478" y="900.0" font-family="DejaVu Sans, Arial, sans-serif" font-size="14" fill="#475569" font-weight="normal" font-style="normal" text-anchor="start">challenge · verdict</text><text x="1478" y="920.0" font-family="DejaVu Sans, Arial, sans-serif" font-size="14" fill="#475569" font-weight="normal" font-style="normal" text-anchor="start">cross-doc + rule sweep</text><g stroke="#db2777" stroke-width="2.4" fill="none"><rect x="1435" y="849.0" width="26" height="26" rx="4"/><rect x="1442" y="856.0" width="12" height="12" rx="2"/><line x1="1444" y1="849.0" x2="1444" y2="843.0"/><line x1="1444" y1="875.0" x2="1444" y2="881.0"/><line x1="1453" y1="849.0" x2="1453" y2="843.0"/><line x1="1453" y1="875.0" x2="1453" y2="881.0"/></g><rect x="878" y="1130" width="146" height="130" rx="14" fill="#ffffff" stroke="#0369a1" stroke-width="2.5" filter="url(#sh)"/><rect x="878" y="1130" width="8" height="130" rx="4" fill="#0369a1"/><text x="904" y="1201.8" font-family="DejaVu Sans, Arial, sans-serif" font-size="20" fill="#0f172a" font-weight="bold" font-style="normal" text-anchor="start">llm</text><rect x="1030" y="1130" width="146" height="130" rx="14" fill="#ffffff" stroke="#0369a1" stroke-width="2.5" filter="url(#sh)"/><rect x="1030" y="1130" width="8" height="130" rx="4" fill="#0369a1"/><text x="1056" y="1201.8" font-family="DejaVu Sans, Arial, sans-serif" font-size="20" fill="#0f172a" font-weight="bold" font-style="normal" text-anchor="start">scoring</text><rect x="1182" y="1130" width="146" height="130" rx="14" fill="#ffffff" stroke="#0369a1" stroke-width="2.5" filter="url(#sh)"/><rect x="1182" y="1130" width="8" height="130" rx="4" fill="#0369a1"/><text x="1208" y="1201.8" font-family="DejaVu Sans, Arial, sans-serif" font-size="20" fill="#0f172a" font-weight="bold" font-style="normal" text-anchor="start">files</text><rect x="1334" y="1130" width="146" height="130" rx="14" fill="#ffffff" stroke="#0369a1" stroke-width="2.5" filter="url(#sh)"/><rect x="1334" y="1130" width="8" height="130" rx="4" fill="#0369a1"/><text x="1360" y="1201.8" font-family="DejaVu Sans, Arial, sans-serif" font-size="20" fill="#0f172a" font-weight="bold" font-style="normal" text-anchor="start">events</text><rect x="1486" y="1130" width="146" height="130" rx="14" fill="#ffffff" stroke="#0369a1" stroke-width="2.5" filter="url(#sh)"/><rect x="1486" y="1130" width="8" height="130" rx="4" fill="#0369a1"/><text x="1512" y="1201.8" font-family="DejaVu Sans, Arial, sans-serif" font-size="20" fill="#0f172a" font-weight="bold" font-style="normal" text-anchor="start">export</text><rect x="1638" y="1130" width="146" height="130" rx="14" fill="#ffffff" stroke="#0369a1" stroke-width="2.5" filter="url(#sh)"/><rect x="1638" y="1130" width="8" height="130" rx="4" fill="#0369a1"/><text x="1664" y="1201.8" font-family="DejaVu Sans, Arial, sans-serif" font-size="20" fill="#0f172a" font-weight="bold" font-style="normal" text-anchor="start">activity</text><rect x="1918" y="372" width="398" height="176" rx="14" fill="#ffffff" stroke="#d97706" stroke-width="2.5" filter="url(#sh)"/><rect x="1918" y="372" width="8" height="176" rx="4" fill="#d97706"/><text x="1978" y="454.0" font-family="DejaVu Sans, Arial, sans-serif" font-size="21" fill="#0f172a" font-weight="bold" font-style="normal" text-anchor="start">PostgreSQL 16</text><text x="1978" y="478.0" font-family="DejaVu Sans, Arial, sans-serif" font-size="14" fill="#475569" font-weight="normal" font-style="normal" text-anchor="start">14 tables · JSONB</text><text x="1978" y="498.0" font-family="DejaVu Sans, Arial, sans-serif" font-size="14" fill="#475569" font-weight="normal" font-style="normal" text-anchor="start">SQLAlchemy ORM</text><text x="1978" y="518.0" font-family="DejaVu Sans, Arial, sans-serif" font-size="14" fill="#475569" font-weight="normal" font-style="normal" text-anchor="start">agent_events · activity_logs</text><text x="1978" y="538.0" font-family="DejaVu Sans, Arial, sans-serif" font-size="14" fill="#475569" font-weight="normal" font-style="normal" text-anchor="start">cases · scorecards · …</text><g stroke="#d97706" stroke-width="2.4" fill="none"><ellipse cx="1948" cy="447.0" rx="15" ry="6"/><path d="M 1933 447.0 v 26 a 15 6 0 0 0 30 0 v -26"/><path d="M 1933 460.0 a 15 6 0 0 0 30 0"/></g><rect x="1918" y="610" width="398" height="176" rx="14" fill="#ffffff" stroke="#d97706" stroke-width="2.5" filter="url(#sh)"/><rect x="1918" y="610" width="8" height="176" rx="4" fill="#d97706"/><text x="1978" y="692.0" font-family="DejaVu Sans, Arial, sans-serif" font-size="20" fill="#0f172a" font-weight="bold" font-style="normal" text-anchor="start">Ephemeral Disk</text><text x="1978" y="716.0" font-family="DejaVu Sans, Arial, sans-serif" font-size="13" fill="#475569" font-weight="normal" font-style="normal" text-anchor="start">uploads/  (container FS)</text><text x="1978" y="736.0" font-family="DejaVu Sans, Arial, sans-serif" font-size="13" fill="#475569" font-weight="normal" font-style="normal" text-anchor="start">page renders · evidence crops</text><text x="1978" y="756.0" font-family="DejaVu Sans, Arial, sans-serif" font-size="13" fill="#475569" font-weight="normal" font-style="normal" text-anchor="start">llm_cache.json · agent log</text><text x="1978" y="776.0" font-family="DejaVu Sans, Arial, sans-serif" font-size="13" fill="#475569" font-weight="normal" font-style="normal" text-anchor="start">[wiped on redeploy]</text><g stroke="#d97706" stroke-width="2.4" fill="none"><rect x="1933" y="686.0" width="30" height="24" rx="3"/><circle cx="1948" cy="698.0" r="6"/><circle cx="1948" cy="698.0" r="1.5" fill="#d97706"/></g><rect x="2462" y="356" width="328" height="96" rx="14" fill="#ffffff" stroke="#7c3aed" stroke-width="2.5" filter="url(#sh)"/><rect x="2462" y="356" width="8" height="96" rx="4" fill="#7c3aed"/><text x="2522" y="398.0" font-family="DejaVu Sans, Arial, sans-serif" font-size="20" fill="#0f172a" font-weight="bold" font-style="normal" text-anchor="start">Google Gemini</text><text x="2522" y="422.0" font-family="DejaVu Sans, Arial, sans-serif" font-size="14" fill="#475569" font-weight="normal" font-style="normal" text-anchor="start">vision · free tier</text><g stroke="#7c3aed" stroke-width="2.4" fill="none"><path d="M 2489 391.0 a 9 9 0 0 0 -9 9 a 7 7 0 0 0 2 12 a 8 8 0 0 0 10 3 v -24 a 6 6 0 0 0 -3 0"/><path d="M 2495 391.0 a 9 9 0 0 1 9 9 a 7 7 0 0 1 -2 12 a 8 8 0 0 1 -10 3"/></g><rect x="2462" y="468" width="328" height="96" rx="14" fill="#ffffff" stroke="#7c3aed" stroke-width="2.5" filter="url(#sh)"/><rect x="2462" y="468" width="8" height="96" rx="4" fill="#7c3aed"/><text x="2522" y="510.0" font-family="DejaVu Sans, Arial, sans-serif" font-size="20" fill="#0f172a" font-weight="bold" font-style="normal" text-anchor="start">Anthropic</text><text x="2522" y="534.0" font-family="DejaVu Sans, Arial, sans-serif" font-size="14" fill="#475569" font-weight="normal" font-style="normal" text-anchor="start">Claude API</text><g stroke="#7c3aed" stroke-width="2.4" fill="none"><path d="M 2489 503.0 a 9 9 0 0 0 -9 9 a 7 7 0 0 0 2 12 a 8 8 0 0 0 10 3 v -24 a 6 6 0 0 0 -3 0"/><path d="M 2495 503.0 a 9 9 0 0 1 9 9 a 7 7 0 0 1 -2 12 a 8 8 0 0 1 -10 3"/></g><rect x="2462" y="580" width="328" height="96" rx="14" fill="#ffffff" stroke="#7c3aed" stroke-width="2.5" filter="url(#sh)"/><rect x="2462" y="580" width="8" height="96" rx="4" fill="#7c3aed"/><text x="2488" y="622.0" font-family="DejaVu Sans, Arial, sans-serif" font-size="20" fill="#0f172a" font-weight="bold" font-style="normal" text-anchor="start">Ollama</text><text x="2488" y="646.0" font-family="DejaVu Sans, Arial, sans-serif" font-size="14" fill="#475569" font-weight="normal" font-style="normal" text-anchor="start">local · offline</text><rect x="2462" y="692" width="328" height="96" rx="14" fill="#ffffff" stroke="#7c3aed" stroke-width="2.5" filter="url(#sh)"/><rect x="2462" y="692" width="8" height="96" rx="4" fill="#7c3aed"/><text x="2488" y="734.0" font-family="DejaVu Sans, Arial, sans-serif" font-size="20" fill="#0f172a" font-weight="bold" font-style="normal" text-anchor="start">mock</text><text x="2488" y="758.0" font-family="DejaVu Sans, Arial, sans-serif" font-size="14" fill="#475569" font-weight="normal" font-style="normal" text-anchor="start">canned · no network</text><path d="M 260 438 L 280 438" fill="none" stroke="#111827" stroke-width="3.2"/><path d="M 260 626 L 280 626" fill="none" stroke="#111827" stroke-width="3.2"/><path d="M 260 814 L 280 814" fill="none" stroke="#111827" stroke-width="3.2"/><path d="M 280 438 L 280 814" fill="none" stroke="#111827" stroke-width="3.2"/><path d="M 280 630 L 300 630" fill="none" stroke="#111827" stroke-width="3.2" marker-end="url(#arrK)"/><rect x="326.4" y="868.0" width="147.2" height="32" rx="8" fill="#ffffff" stroke="#111827" stroke-width="1.6" filter="url(#sh)"/><text x="400" y="887.0" font-family="DejaVu Sans, Arial, sans-serif" font-size="15" fill="#111827" font-weight="bold" font-style="normal" text-anchor="middle">interact · HTTPS</text><path d="M 500 600 L 578 600" fill="none" stroke="#111827" stroke-width="3.2" marker-end="url(#arrK)"/><rect x="391.6" y="544.0" width="294.79999999999995" height="32" rx="8" fill="#ffffff" stroke="#111827" stroke-width="1.6" filter="url(#sh)"/><text x="539" y="563.0" font-family="DejaVu Sans, Arial, sans-serif" font-size="15" fill="#111827" font-weight="bold" font-style="normal" text-anchor="middle">HTTPS 443 · REST/JSON · Bearer JWT</text><path d="M 578 700 L 500 700" fill="none" stroke="#111827" stroke-width="3.2" stroke-dasharray="1.6 9" stroke-linecap="round" marker-end="url(#arrK)"/><rect x="444.9" y="714.0" width="188.2" height="32" rx="8" fill="#ffffff" stroke="#111827" stroke-width="1.6" filter="url(#sh)"/><text x="539" y="733.0" font-family="DejaVu Sans, Arial, sans-serif" font-size="15" fill="#111827" font-weight="bold" font-style="normal" text-anchor="middle">WSS · live agent feed</text><path d="M 788 560 L 843 560 L 843 397 L 858 397" fill="none" stroke="#111827" stroke-width="3.2" marker-end="url(#arrK)"/><rect x="757.8" y="572.0" width="114.39999999999999" height="32" rx="8" fill="#ffffff" stroke="#111827" stroke-width="1.6" filter="url(#sh)"/><text x="815" y="591.0" font-family="DejaVu Sans, Arial, sans-serif" font-size="15" fill="#111827" font-weight="bold" font-style="normal" text-anchor="middle">route /api/*</text><path d="M 788 510 L 788 300 L 1636 300 L 1636 322" fill="none" stroke="#111827" stroke-width="3.2" stroke-dasharray="1.6 9" stroke-linecap="round" marker-end="url(#arrK)"/><rect x="1078.2" y="284.0" width="163.6" height="32" rx="8" fill="#ffffff" stroke="#111827" stroke-width="1.6" filter="url(#sh)"/><text x="1160" y="303.0" font-family="DejaVu Sans, Arial, sans-serif" font-size="15" fill="#111827" font-weight="bold" font-style="normal" text-anchor="middle">serve SPA (static)</text><path d="M 1084 472 L 1084 542" fill="none" stroke="#111827" stroke-width="3.2" marker-end="url(#arrK)"/><rect x="1081.8" y="489.0" width="196.39999999999998" height="32" rx="8" fill="#ffffff" stroke="#111827" stroke-width="1.6" filter="url(#sh)"/><text x="1180" y="508.0" font-family="DejaVu Sans, Arial, sans-serif" font-size="15" fill="#111827" font-weight="bold" font-style="normal" text-anchor="middle">enqueue BackgroundTask</text><path d="M 1330 642 L 1330 780" fill="none" stroke="#111827" stroke-width="3.2" marker-end="url(#arrK)"/><rect x="1215.4" y="652.0" width="229.2" height="32" rx="8" fill="#ffffff" stroke="#111827" stroke-width="1.6" filter="url(#sh)"/><text x="1330" y="671.0" font-family="DejaVu Sans, Arial, sans-serif" font-size="15" fill="#111827" font-weight="bold" font-style="normal" text-anchor="middle">asyncio.gather(doc, audit)</text><path d="M 1138 845 L 1160 845" fill="none" stroke="#111827" stroke-width="3.2" marker-end="url(#arrK)"/><path d="M 1160 885 L 1138 885" fill="none" stroke="#111827" stroke-width="3.2" marker-end="url(#arrK)"/><path d="M 1396 845 L 1418 845" fill="none" stroke="#111827" stroke-width="3.2" marker-end="url(#arrK)"/><path d="M 1418 885 L 1396 885" fill="none" stroke="#111827" stroke-width="3.2" marker-end="url(#arrK)"/><text x="1149" y="831" font-family="DejaVu Sans, Arial, sans-serif" font-size="12.5" fill="#111827" font-weight="bold" font-style="normal" text-anchor="middle">DOC_CLAIM</text><text x="1149" y="908" font-family="DejaVu Sans, Arial, sans-serif" font-size="11.5" fill="#111827" font-weight="bold" font-style="normal" text-anchor="middle">DEFEND / CONCEDE</text><text x="1407" y="831" font-family="DejaVu Sans, Arial, sans-serif" font-size="12.5" fill="#111827" font-weight="bold" font-style="normal" text-anchor="middle">CHALLENGE</text><text x="1407" y="908" font-family="DejaVu Sans, Arial, sans-serif" font-size="12" fill="#111827" font-weight="bold" font-style="normal" text-anchor="middle">VERDICT</text><path d="M 1200 1020 L 1200 1130" fill="none" stroke="#111827" stroke-width="3.2" marker-end="url(#arrK)"/><rect x="1069.0" y="1030.0" width="262.0" height="32" rx="8" fill="#ffffff" stroke="#111827" stroke-width="1.6" filter="url(#sh)"/><text x="1200" y="1049.0" font-family="DejaVu Sans, Arial, sans-serif" font-size="15" fill="#111827" font-weight="bold" font-style="normal" text-anchor="middle">facts · fields · discrepancies</text><path d="M 1407 1260 L 1407 1360 L 872 1360 L 872 505 L 1300 505 L 1300 472" fill="none" stroke="#111827" stroke-width="3.2" stroke-dasharray="1.6 9" stroke-linecap="round" marker-end="url(#arrK)"/><rect x="1013.6" y="1344.0" width="212.79999999999998" height="32" rx="8" fill="#ffffff" stroke="#111827" stroke-width="1.6" filter="url(#sh)"/><text x="1120" y="1363.0" font-family="DejaVu Sans, Arial, sans-serif" font-size="15" fill="#111827" font-weight="bold" font-style="normal" text-anchor="middle">emit() → WsHub broadcast</text><path d="M 1784 1160 L 1858 1160 L 1858 460 L 1918 460" fill="none" stroke="#111827" stroke-width="3.2" marker-end="url(#arrK)"/><rect x="1763.9" y="864.0" width="188.2" height="32" rx="8" fill="#ffffff" stroke="#111827" stroke-width="1.6" filter="url(#sh)"/><text x="1858" y="883.0" font-family="DejaVu Sans, Arial, sans-serif" font-size="15" fill="#111827" font-weight="bold" font-style="normal" text-anchor="middle">TCP 5432 · SQLAlchemy</text><path d="M 1255 1260 L 1255 1420 L 1872 1420 L 1872 698 L 1918 698" fill="none" stroke="#111827" stroke-width="3.2" stroke-dasharray="1.6 9" stroke-linecap="round" marker-end="url(#arrK)"/><rect x="1519.2" y="1404.0" width="81.6" height="32" rx="8" fill="#ffffff" stroke="#111827" stroke-width="1.6" filter="url(#sh)"/><text x="1560" y="1423.0" font-family="DejaVu Sans, Arial, sans-serif" font-size="15" fill="#111827" font-weight="bold" font-style="normal" text-anchor="middle">file I/O</text><path d="M 951 1260 L 951 1600 L 2400 1600 L 2400 470 L 2432 470" fill="none" stroke="#111827" stroke-width="3.2" marker-end="url(#arrK)"/><rect x="1291.2" y="1584.0" width="737.5999999999999" height="32" rx="8" fill="#ffffff" stroke="#111827" stroke-width="1.6" filter="url(#sh)"/><text x="1660" y="1603.0" font-family="DejaVu Sans, Arial, sans-serif" font-size="15" fill="#111827" font-weight="bold" font-style="normal" text-anchor="middle">HTTPS egress · image ≤1024px JPEG q80 · strict JSON · key in header · throttled + cached</text><rect x="46" y="1690" width="2768" height="96" rx="16" fill="#ffffff" stroke="#cbd5e1" stroke-width="2"/><text x="70" y="1728" font-family="DejaVu Sans, Arial, sans-serif" font-size="22" fill="#0f172a" font-weight="bold" font-style="normal" text-anchor="start">Legend</text><line x1="180" y1="1722" x2="248" y2="1722" stroke="#111827" stroke-width="3.4" marker-end="url(#arrK)"/><text x="262" y="1728" font-family="DejaVu Sans, Arial, sans-serif" font-size="16" fill="#475569" font-weight="normal" font-style="normal" text-anchor="start">solid — synchronous request (HTTP · DB query · agent message · LLM API call)</text><line x1="1180" y1="1722" x2="1248" y2="1722" stroke="#111827" stroke-width="3.4" stroke-dasharray="1.6 9" stroke-linecap="round" marker-end="url(#arrK)"/><text x="1262" y="1728" font-family="DejaVu Sans, Arial, sans-serif" font-size="16" fill="#475569" font-weight="normal" font-style="normal" text-anchor="start">dotted — live / async / storage (WSS feed · event broadcast · file I/O · static serve)</text><rect x="70" y="1748" width="22" height="22" rx="6" fill="#2563eb" fill-opacity="0.35" stroke="#2563eb" stroke-width="2"/><text x="100" y="1765" font-family="DejaVu Sans, Arial, sans-serif" font-size="15.5" fill="#475569" font-weight="normal" font-style="normal" text-anchor="start">Client</text><rect x="180.0" y="1748" width="22" height="22" rx="6" fill="#4f46e5" fill-opacity="0.35" stroke="#4f46e5" stroke-width="2"/><text x="210.0" y="1765" font-family="DejaVu Sans, Arial, sans-serif" font-size="15.5" fill="#475569" font-weight="normal" font-style="normal" text-anchor="start">PaaS</text><rect x="272.0" y="1748" width="22" height="22" rx="6" fill="#0d9488" fill-opacity="0.35" stroke="#0d9488" stroke-width="2"/><text x="302.0" y="1765" font-family="DejaVu Sans, Arial, sans-serif" font-size="15.5" fill="#475569" font-weight="normal" font-style="normal" text-anchor="start">App</text><rect x="355.0" y="1748" width="22" height="22" rx="6" fill="#db2777" fill-opacity="0.35" stroke="#db2777" stroke-width="2"/><text x="385.0" y="1765" font-family="DejaVu Sans, Arial, sans-serif" font-size="15.5" fill="#475569" font-weight="normal" font-style="normal" text-anchor="start">Agent core</text><rect x="501.0" y="1748" width="22" height="22" rx="6" fill="#0369a1" fill-opacity="0.35" stroke="#0369a1" stroke-width="2"/><text x="531.0" y="1765" font-family="DejaVu Sans, Arial, sans-serif" font-size="15.5" fill="#475569" font-weight="normal" font-style="normal" text-anchor="start">Services</text><rect x="629.0" y="1748" width="22" height="22" rx="6" fill="#d97706" fill-opacity="0.35" stroke="#d97706" stroke-width="2"/><text x="659.0" y="1765" font-family="DejaVu Sans, Arial, sans-serif" font-size="15.5" fill="#475569" font-weight="normal" font-style="normal" text-anchor="start">Data</text><rect x="721.0" y="1748" width="22" height="22" rx="6" fill="#7c3aed" fill-opacity="0.35" stroke="#7c3aed" stroke-width="2"/><text x="751.0" y="1765" font-family="DejaVu Sans, Arial, sans-serif" font-size="15.5" fill="#475569" font-weight="normal" font-style="normal" text-anchor="start">External</text><text x="869.0" y="1765" font-family="DejaVu Sans, Arial, sans-serif" font-size="15" fill="#475569" font-weight="italic" font-style="normal" text-anchor="start">·  Not present (do not assume): message broker · Redis · Kubernetes · CDN/LB as code · OAuth/SSO · scheduler · CI/CD · Alembic.  mock = fully offline.</text></svg>